<svg width="24" height="25" viewBox="0 0 24 25" fill="none" xmlns="http://www.w3.org/2000/svg">
<path d="M12 22.105C11.7667 22.105 11.5667 22.0383 11.4 21.905C11.2333 21.7716 11.1083 21.5966 11.025 21.38C10.7083 20.4466 10.3083 19.5716 9.825 18.755C9.35833 17.9383 8.7 16.98 7.85 15.88C7 14.78 6.30833 13.73 5.775 12.73C5.25833 11.73 5 10.5216 5 9.10498C5 7.15498 5.675 5.50498 7.025 4.15498C8.39167 2.78831 10.05 2.10498 12 2.10498C13.95 2.10498 15.6 2.78831 16.95 4.15498C18.3167 5.50498 19 7.15498 19 9.10498C19 10.6216 18.7083 11.8883 18.125 12.905C17.5583 13.905 16.9 14.8966 16.15 15.88C15.25 17.08 14.5667 18.08 14.1 18.88C13.65 19.6633 13.275 20.4966 12.975 21.38C12.8917 21.6133 12.7583 21.7966 12.575 21.93C12.4083 22.0466 12.2167 22.105 12 22.105ZM12 18.53C12.2833 17.9633 12.6 17.405 12.95 16.855C13.3167 16.305 13.85 15.5716 14.55 14.655C15.2667 13.7216 15.85 12.8633 16.3 12.08C16.7667 11.28 17 10.2883 17 9.10498C17 7.72165 16.5083 6.54665 15.525 5.57998C14.5583 4.59665 13.3833 4.10498 12 4.10498C10.6167 4.10498 9.43333 4.59665 8.45 5.57998C7.48333 6.54665 7 7.72165 7 9.10498C7 10.2883 7.225 11.28 7.675 12.08C8.14167 12.8633 8.73333 13.7216 9.45 14.655C10.15 15.5716 10.675 16.305 11.025 16.855C11.3917 17.405 11.7167 17.9633 12 18.53ZM12 11.605C12.7 11.605 13.2917 11.3633 13.775 10.88C14.2583 10.3966 14.5 9.80498 14.5 9.10498C14.5 8.40498 14.2583 7.81331 13.775 7.32998C13.2917 6.84665 12.7 6.60498 12 6.60498C11.3 6.60498 10.7083 6.84665 10.225 7.32998C9.74167 7.81331 9.5 8.40498 9.5 9.10498C9.5 9.80498 9.74167 10.3966 10.225 10.88C10.7083 11.3633 11.3 11.605 12 11.605Z" fill="#84B210"/>
</svg>
