<svg width="24" height="25" viewBox="0 0 24 25" fill="none" xmlns="http://www.w3.org/2000/svg">
<path d="M4 20.105C3.45 20.105 2.97917 19.9091 2.5875 19.5175C2.19583 19.1258 2 18.655 2 18.105V6.10498C2 5.55498 2.19583 5.08415 2.5875 4.69248C2.97917 4.30081 3.45 4.10498 4 4.10498H20C20.55 4.10498 21.0208 4.30081 21.4125 4.69248C21.8042 5.08415 22 5.55498 22 6.10498V18.105C22 18.655 21.8042 19.1258 21.4125 19.5175C21.0208 19.9091 20.55 20.105 20 20.105H4ZM12 13.105L4 8.10498V18.105H20V8.10498L12 13.105ZM12 11.105L20 6.10498H4L12 11.105ZM4 8.10498V6.10498V18.105V8.10498Z" fill="#84B210"/>
</svg>
