<svg width="52" height="41" viewBox="0 0 52 41" fill="none" xmlns="http://www.w3.org/2000/svg">
<path d="M32.0006 0.10498C43.0463 0.105007 52.0006 9.0593 52.0006 20.105C52.0006 31.1507 43.0463 40.105 32.0006 40.105C24.3045 40.105 17.6241 35.7578 14.2799 29.3853C15.5972 29.8832 16.9331 30.1567 18.2887 30.0972C20.5313 29.9986 22.6264 29.0012 24.6139 27.0405C25.1277 26.5336 25.1276 25.7116 24.6139 25.2046C24.1 24.6979 23.2673 24.6977 22.7535 25.2046C21.1229 26.8133 19.62 27.4397 18.1725 27.5034C16.6815 27.569 15.0464 27.0478 13.1578 25.9722C13.0454 25.9082 12.9326 25.8452 12.8199 25.7837C12.3995 24.3614 12.133 22.8735 12.0396 21.3384C14.0765 22.4711 16.1582 23.1995 18.2887 23.106C20.5313 23.0074 22.6264 22.01 24.6139 20.0493C25.1277 19.5424 25.1276 18.7203 24.6139 18.2134C24.1 17.7067 23.2673 17.7065 22.7535 18.2134C21.1229 19.8221 19.62 20.4484 18.1725 20.5122C16.6815 20.5778 15.0464 20.0566 13.1578 18.981C12.7978 18.7759 12.4357 18.5839 12.0728 18.4058C12.1794 17.139 12.4033 15.9058 12.735 14.7173C14.5497 15.6349 16.4001 16.1977 18.2887 16.1147C20.5313 16.0161 22.6264 15.0188 24.6139 13.0581C25.1277 12.5512 25.1276 11.7291 24.6139 11.2222C24.1 10.7155 23.2673 10.7153 22.7535 11.2222C21.1228 12.8309 19.62 13.4572 18.1725 13.521C16.8011 13.5813 15.3083 13.1442 13.608 12.2368C16.6638 5.10292 23.7484 0.10498 32.0006 0.10498ZM6.71054 24.0952C8.79212 24.0038 10.8278 24.6955 12.8199 25.7837C13.1913 27.0401 13.6816 28.2452 14.2799 29.3853C13.46 29.0753 12.6468 28.679 11.8414 28.2202C9.95283 27.1445 8.31772 26.6234 6.82675 26.689C5.37923 26.7528 3.87632 27.379 2.2457 28.9878C1.73194 29.4945 0.899172 29.4944 0.385345 28.9878C-0.128478 28.4809 -0.128419 27.6588 0.385345 27.1519C2.37289 25.1911 4.46788 24.1938 6.71054 24.0952ZM6.71054 17.104C8.53276 17.024 10.3194 17.545 12.0728 18.4058C12.0257 18.9659 12.0006 19.5326 12.0006 20.105C12.0006 20.5192 12.0148 20.9304 12.0396 21.3384C11.9739 21.3018 11.907 21.2664 11.8414 21.229C9.95283 20.1533 8.31772 19.6322 6.82675 19.6978C5.37923 19.7616 3.87632 20.3878 2.2457 21.9966C1.73194 22.5033 0.899174 22.5032 0.385345 21.9966C-0.128478 21.4897 -0.128419 20.6676 0.385345 20.1606C2.37288 18.1999 4.46789 17.2026 6.71054 17.104ZM6.71054 10.1128C8.90982 10.0162 11.0582 10.7938 13.1578 11.9897C13.3093 12.076 13.4597 12.1577 13.608 12.2368C13.2648 13.0381 12.9725 13.8662 12.735 14.7173C12.4364 14.5663 12.138 14.4067 11.8414 14.2378C9.95284 13.1621 8.31771 12.641 6.82675 12.7065C5.37923 12.7703 3.87632 13.3966 2.2457 15.0054C1.73194 15.5121 0.899177 15.512 0.385345 15.0054C-0.128478 14.4984 -0.128419 13.6764 0.385345 13.1694C2.37288 11.2086 4.46789 10.2114 6.71054 10.1128Z" fill="#A8CF45"/>
</svg>
