<svg width="38" height="32" viewBox="0 0 38 32" fill="none" xmlns="http://www.w3.org/2000/svg">
<path d="M10.2 0.605869C13.543 0.456907 16.8083 1.65394 19.9998 3.49649C22.8706 5.15392 25.3555 5.95688 27.6219 5.85587C29.8222 5.75774 32.107 4.79355 34.5857 2.31485C35.3668 1.5338 36.6328 1.53381 37.4138 2.31485C38.1948 3.09591 38.1948 4.36197 37.4138 5.14298C34.3928 8.16402 31.2085 9.70004 27.7996 9.85196C24.4566 10.0009 21.1912 8.80292 17.9998 6.96036C15.129 5.30301 12.644 4.50096 10.3777 4.60196C8.17729 4.7001 5.89262 5.6642 3.41384 8.14298C2.63283 8.92385 1.36673 8.92385 0.585718 8.14298C-0.195284 7.36197 -0.195195 6.09591 0.585718 5.31485C3.60684 2.29374 6.79106 0.757796 10.2 0.605869Z" fill="#A8CF45"/>
<path d="M10.2 11.3769C13.543 11.2279 16.8083 12.4249 19.9998 14.2675C22.8706 15.9249 25.3555 16.7279 27.6219 16.6269C29.8222 16.5287 32.107 15.5646 34.5857 13.0858C35.3668 12.3048 36.6328 12.3048 37.4138 13.0858C38.1948 13.8669 38.1948 15.133 37.4138 15.914C34.3928 18.935 31.2085 20.471 27.7996 20.623C24.4566 20.7719 21.1912 19.5739 17.9998 17.7314C15.129 16.074 12.644 15.272 10.3777 15.373C8.17729 15.4711 5.89262 16.4352 3.41384 18.914C2.63283 19.6948 1.36673 19.6948 0.585718 18.914C-0.195284 18.133 -0.195195 16.8669 0.585718 16.0858C3.60684 13.0647 6.79106 11.5288 10.2 11.3769Z" fill="#A8CF45"/>
<path d="M10.2 22.1479C13.543 21.9989 16.8083 23.1959 19.9998 25.0385C22.8706 26.6959 25.3555 27.4989 27.6219 27.3979C29.8222 27.2997 32.107 26.3355 34.5857 23.8568C35.3668 23.0758 36.6328 23.0758 37.4138 23.8568C38.1948 24.6379 38.1948 25.904 37.4138 26.685C34.3928 29.706 31.2085 31.242 27.7996 31.394C24.4566 31.5429 21.1912 30.3449 17.9998 28.5024C15.129 26.845 12.644 26.043 10.3777 26.144C8.17729 26.2421 5.89262 27.2062 3.41384 29.685C2.63283 30.4658 1.36673 30.4658 0.585718 29.685C-0.195284 28.904 -0.195195 27.6379 0.585718 26.8568C3.60684 23.8357 6.79106 22.2998 10.2 22.1479Z" fill="#A8CF45"/>
</svg>
